<svg width="54" height="53" viewBox="0 0 54 53" fill="none" xmlns="http://www.w3.org/2000/svg">
<g clip-path="url(#clip0_1_22421)">
<rect x="0.879089" width="52.2443" height="52.2443" rx="26.1221" fill="white"/>
<g clip-path="url(#clip1_1_22421)">
<mask id="mask0_1_22421" style="mask-type:luminance" maskUnits="userSpaceOnUse" x="0" y="-1" width="54" height="54">
<path d="M53.1247 -0.00392151H0.880432V52.2403H53.1247V-0.00392151Z" fill="white"/>
</mask>
<g mask="url(#mask0_1_22421)">
<path d="M53.1247 -0.00392151H0.880432V52.2403H53.1247V-0.00392151Z" fill="white"/>
<path d="M53.1519 -0.00393677H0.907593V52.2403H53.1519V-0.00393677Z" fill="url(#paint0_linear_1_22421)"/>
<path d="M53.1519 -0.00393677H0.907593V52.2403H53.1519V-0.00393677Z" fill="url(#paint1_linear_1_22421)"/>
<path d="M53.1519 -0.00393677H0.907593V52.2403H53.1519V-0.00393677Z" fill="url(#paint2_linear_1_22421)"/>
<path d="M53.1519 -0.00393677H0.907593V52.2403H53.1519V-0.00393677Z" fill="url(#paint3_linear_1_22421)"/>
</g>
</g>
<path d="M20.1942 35.161V15.7837H27.1012C28.6087 15.7837 29.8576 16.0581 30.848 16.6069C31.8383 17.1557 32.5794 17.9063 33.0714 18.8587C33.5634 19.8049 33.8094 20.8709 33.8094 22.0568C33.8094 23.2489 33.5602 24.3212 33.0619 25.2737C32.5699 26.2198 31.8256 26.9705 30.829 27.5255C29.8387 28.0743 28.593 28.3487 27.0917 28.3487H22.342V25.8698H26.8268C27.7792 25.8698 28.5519 25.7058 29.1448 25.3778C29.7378 25.0434 30.173 24.5893 30.4505 24.0153C30.7281 23.4413 30.8669 22.7884 30.8669 22.0568C30.8669 21.3251 30.7281 20.6754 30.4505 20.1077C30.173 19.54 29.7346 19.0953 29.1354 18.7736C28.5425 18.4519 27.7603 18.2911 26.7889 18.2911H23.1179V35.161H20.1942Z" fill="#29293E"/>
</g>
<defs>
<linearGradient id="paint0_linear_1_22421" x1="43.9569" y1="3.62704" x2="14.5434" y2="52.2403" gradientUnits="userSpaceOnUse">
<stop stop-color="#FF6866"/>
<stop offset="0.510417" stop-color="#FF908B"/>
<stop offset="1" stop-color="#FF9680"/>
</linearGradient>
<linearGradient id="paint1_linear_1_22421" x1="5.60957" y1="49.1057" x2="17.7564" y2="36.4103" gradientUnits="userSpaceOnUse">
<stop stop-color="#FFA794"/>
<stop offset="0.963542" stop-color="#FF9480" stop-opacity="0.26"/>
</linearGradient>
<linearGradient id="paint2_linear_1_22421" x1="29.0934" y1="9.92247" x2="53.178" y2="39.2315" gradientUnits="userSpaceOnUse">
<stop stop-color="#F8FCD9" stop-opacity="0"/>
<stop offset="1" stop-color="#F8FCD9"/>
</linearGradient>
<linearGradient id="paint3_linear_1_22421" x1="38.0794" y1="2.37318" x2="28.7277" y2="33.4324" gradientUnits="userSpaceOnUse">
<stop stop-color="#FF6B6B"/>
<stop offset="1" stop-color="#FF8F8F" stop-opacity="0"/>
</linearGradient>
<clipPath id="clip0_1_22421">
<rect x="0.879089" width="52.2443" height="52.2443" rx="26.1221" fill="white"/>
</clipPath>
<clipPath id="clip1_1_22421">
<rect width="52.2443" height="52.2443" fill="white" transform="translate(0.879272)"/>
</clipPath>
</defs>
</svg>
