<svg width="53" height="53" viewBox="0 0 53 53" fill="none" xmlns="http://www.w3.org/2000/svg">
<g clip-path="url(#clip0_1_22408)">
<rect x="0.184204" y="0.578888" width="52.2443" height="52.2443" rx="26.1221" fill="white"/>
<g clip-path="url(#clip1_1_22408)">
<mask id="mask0_1_22408" style="mask-type:luminance" maskUnits="userSpaceOnUse" x="0" y="0" width="53" height="53">
<path d="M52.4294 0.585876H0.18515V52.8301H52.4294V0.585876Z" fill="white"/>
</mask>
<g mask="url(#mask0_1_22408)">
<path d="M52.4294 0.585876H0.18515V52.8301H52.4294V0.585876Z" fill="white"/>
<path d="M52.4559 0.585876H0.211609V52.8301H52.4559V0.585876Z" fill="url(#paint0_linear_1_22408)"/>
<path d="M52.4559 0.585876H0.211609V52.8301H52.4559V0.585876Z" fill="url(#paint1_linear_1_22408)"/>
<path d="M52.4559 0.585876H0.211609V52.8301H52.4559V0.585876Z" fill="url(#paint2_linear_1_22408)"/>
<path d="M52.4559 0.585876H0.211609V52.8301H52.4559V0.585876Z" fill="url(#paint3_linear_1_22408)"/>
</g>
</g>
<path d="M31.6097 22.4882C31.4268 21.9142 31.1808 21.4001 30.8717 20.946C30.5689 20.4855 30.2062 20.0944 29.7836 19.7727C29.361 19.4447 28.8785 19.1956 28.336 19.0253C27.7998 18.8549 27.2101 18.7698 26.5667 18.7698C25.4754 18.7698 24.4915 19.0505 23.6147 19.6119C22.7379 20.1732 22.044 20.9964 21.5332 22.0813C21.0286 23.16 20.7762 24.4814 20.7762 26.0457C20.7762 27.6164 21.0317 28.9442 21.5426 30.0291C22.0536 31.114 22.7537 31.9371 23.6431 32.4985C24.5325 33.0599 25.5448 33.3406 26.6802 33.3406C27.7336 33.3406 28.6514 33.1261 29.4336 32.6972C30.222 32.2683 30.8307 31.6628 31.2596 30.8806C31.6949 30.0921 31.9125 29.1649 31.9125 28.0989L32.6694 28.2408H27.1249V25.8281H34.7415V28.0327C34.7415 29.66 34.3946 31.073 33.7007 32.2714C33.0132 33.4636 32.0607 34.3846 30.8433 35.0342C29.6322 35.6839 28.2446 36.0088 26.6802 36.0088C24.9267 36.0088 23.3876 35.6051 22.063 34.7977C20.7447 33.9903 19.7165 32.8454 18.9785 31.3631C18.2405 29.8745 17.8715 28.1084 17.8715 26.0646C17.8715 24.5193 18.086 23.1316 18.5149 21.9016C18.9438 20.6716 19.5462 19.6277 20.3221 18.7698C21.1042 17.9056 22.022 17.2465 23.0754 16.7924C24.1351 16.3319 25.2925 16.1017 26.5478 16.1017C27.5948 16.1017 28.5694 16.2562 29.4714 16.5653C30.3797 16.8743 31.1871 17.3127 31.8936 17.8804C32.6063 18.4481 33.1961 19.123 33.6629 19.9052C34.1297 20.681 34.445 21.542 34.609 22.4882H31.6097Z" fill="#29293E"/>
</g>
<defs>
<linearGradient id="paint0_linear_1_22408" x1="43.2609" y1="4.21685" x2="13.8474" y2="52.8301" gradientUnits="userSpaceOnUse">
<stop stop-color="#FFC2A8"/>
<stop offset="0.510417" stop-color="#FFD74A"/>
<stop offset="1" stop-color="#EDC63B"/>
</linearGradient>
<linearGradient id="paint1_linear_1_22408" x1="-2.06102" y1="69.705" x2="25.2105" y2="31.7235" gradientUnits="userSpaceOnUse">
<stop stop-color="#FFE58A"/>
<stop offset="0.963542" stop-color="#FFF963" stop-opacity="0"/>
</linearGradient>
<linearGradient id="paint2_linear_1_22408" x1="26.3337" y1="19.3938" x2="59.6917" y2="26.708" gradientUnits="userSpaceOnUse">
<stop stop-color="#FF8541" stop-opacity="0"/>
<stop offset="1" stop-color="#FF8541"/>
</linearGradient>
<linearGradient id="paint3_linear_1_22408" x1="26.3337" y1="-5.57895" x2="28.0317" y2="34.0222" gradientUnits="userSpaceOnUse">
<stop stop-color="#677FFB"/>
<stop offset="1" stop-color="#677FFB" stop-opacity="0"/>
</linearGradient>
<clipPath id="clip0_1_22408">
<rect x="0.184204" y="0.578888" width="52.2443" height="52.2443" rx="26.1221" fill="white"/>
</clipPath>
<clipPath id="clip1_1_22408">
<rect width="52.2443" height="52.2443" fill="white" transform="translate(0.184326 0.579651)"/>
</clipPath>
</defs>
</svg>
