<svg width="54" height="53" viewBox="0 0 54 53" fill="none" xmlns="http://www.w3.org/2000/svg">
<g clip-path="url(#clip0_1_22490)">
<rect x="0.879089" y="0.760162" width="52.2443" height="52.2443" rx="26.1221" fill="white"/>
<g clip-path="url(#clip1_1_22490)">
<mask id="mask0_1_22490" style="mask-type:luminance" maskUnits="userSpaceOnUse" x="0" y="0" width="54" height="53">
<path d="M53.1221 0.749939H0.877869V52.9942H53.1221V0.749939Z" fill="white"/>
</mask>
<g mask="url(#mask0_1_22490)">
<path d="M53.1221 0.749939H0.877869V52.9942H53.1221V0.749939Z" fill="white"/>
<path d="M53.149 0.749939H0.904785V52.9942H53.149V0.749939Z" fill="url(#paint0_linear_1_22490)"/>
<path d="M53.149 0.749939H0.904785V52.9942H53.149V0.749939Z" fill="url(#paint1_linear_1_22490)"/>
<path d="M53.149 0.749939H0.904785V52.9942H53.149V0.749939Z" fill="url(#paint2_linear_1_22490)"/>
<path d="M53.149 0.749939H0.904785V52.9942H53.149V0.749939Z" fill="url(#paint3_linear_1_22490)"/>
</g>
</g>
<path d="M35.3606 22.8407H32.4085C32.295 22.2099 32.0837 21.6548 31.7746 21.1754C31.4655 20.696 31.0871 20.2892 30.6392 19.9549C30.1914 19.6206 29.6899 19.3683 29.1349 19.198C28.5861 19.0276 28.0026 18.9425 27.3845 18.9425C26.268 18.9425 25.2682 19.2232 24.3851 19.7846C23.5084 20.3459 22.8145 21.1691 22.3036 22.254C21.799 23.339 21.5467 24.6636 21.5467 26.2279C21.5467 27.8048 21.799 29.1358 22.3036 30.2207C22.8145 31.3056 23.5115 32.1256 24.3946 32.6807C25.2777 33.2358 26.2711 33.5133 27.375 33.5133C27.9868 33.5133 28.5671 33.4313 29.1159 33.2673C29.671 33.097 30.1725 32.8478 30.6203 32.5198C31.0682 32.1919 31.4466 31.7913 31.7557 31.3182C32.0711 30.8388 32.2887 30.2901 32.4085 29.6719L35.3606 29.6814C35.2028 30.6338 34.8969 31.5106 34.4428 32.3117C33.9949 33.1065 33.4178 33.794 32.7113 34.3743C32.0111 34.9483 31.2101 35.393 30.3081 35.7084C29.4061 36.0237 28.4221 36.1815 27.3561 36.1815C25.6782 36.1815 24.1833 35.7841 22.8713 34.9893C21.5593 34.1882 20.5248 33.0434 19.7679 31.5548C19.0173 30.0662 18.642 28.2905 18.642 26.2279C18.642 24.159 19.0204 22.3833 19.7774 20.901C20.5343 19.4124 21.5688 18.2707 22.8807 17.4759C24.1928 16.6749 25.6845 16.2744 27.3561 16.2744C28.3842 16.2744 29.343 16.4226 30.2324 16.719C31.1281 17.0092 31.9323 17.4381 32.6451 18.0058C33.3578 18.5672 33.9476 19.2547 34.4144 20.0684C34.8811 20.8758 35.1965 21.7999 35.3606 22.8407Z" fill="#29293E"/>
</g>
<defs>
<linearGradient id="paint0_linear_1_22490" x1="43.954" y1="4.38092" x2="14.5406" y2="52.9942" gradientUnits="userSpaceOnUse">
<stop stop-color="#A8C0FF"/>
<stop offset="0.510417" stop-color="#C071FF"/>
<stop offset="1" stop-color="#ED3B9B"/>
</linearGradient>
<linearGradient id="paint1_linear_1_22490" x1="9.52506" y1="7.72455" x2="53.149" y2="52.9942" gradientUnits="userSpaceOnUse">
<stop stop-color="#FF8541" stop-opacity="0"/>
<stop offset="1" stop-color="#FF8541"/>
</linearGradient>
<linearGradient id="paint2_linear_1_22490" x1="-1.36784" y1="69.8691" x2="25.9036" y2="31.8875" gradientUnits="userSpaceOnUse">
<stop stop-color="#FF8541"/>
<stop offset="1" stop-color="#FF8541" stop-opacity="0"/>
</linearGradient>
<linearGradient id="paint3_linear_1_22490" x1="28.7248" y1="-14.1919" x2="28.3852" y2="27.8386" gradientUnits="userSpaceOnUse">
<stop stop-color="#8EECFC"/>
<stop offset="1" stop-color="#8EECFC" stop-opacity="0"/>
</linearGradient>
<clipPath id="clip0_1_22490">
<rect x="0.879089" y="0.760162" width="52.2443" height="52.2443" rx="26.1221" fill="white"/>
</clipPath>
<clipPath id="clip1_1_22490">
<rect width="52.2443" height="52.2443" fill="white" transform="translate(0.879761 0.758606)"/>
</clipPath>
</defs>
</svg>
