<svg width="53" height="54" viewBox="0 0 53 54" fill="none" xmlns="http://www.w3.org/2000/svg">
<g clip-path="url(#clip0_1_22462)">
<rect y="0.881256" width="52.2443" height="52.2443" rx="26.1221" fill="white"/>
<g clip-path="url(#clip1_1_22462)">
<mask id="mask0_1_22462" style="mask-type:luminance" maskUnits="userSpaceOnUse" x="0" y="0" width="53" height="54">
<path d="M52.2443 0.870148H0V53.1144H52.2443V0.870148Z" fill="white"/>
</mask>
<g mask="url(#mask0_1_22462)">
<path d="M52.2443 0.870148H0V53.1144H52.2443V0.870148Z" fill="white"/>
<path d="M52.2707 0.870148H0.0264587V53.1144H52.2707V0.870148Z" fill="url(#paint0_linear_1_22462)"/>
<path d="M52.2707 0.870148H0.0264587V53.1144H52.2707V0.870148Z" fill="url(#paint1_linear_1_22462)"/>
<path d="M52.2707 0.870148H0.0264587V53.1144H52.2707V0.870148Z" fill="url(#paint2_linear_1_22462)"/>
<path d="M52.2707 0.870148H0.0264587V53.1144H52.2707V0.870148Z" fill="url(#paint3_linear_1_22462)"/>
<path d="M52.2707 0.870148H0.0264587V53.1144H52.2707V0.870148Z" fill="url(#paint4_linear_1_22462)"/>
</g>
</g>
<path d="M30.2475 21.7562C30.1467 20.8604 29.7303 20.1666 28.9986 19.6746C28.267 19.1763 27.346 18.9271 26.2359 18.9271C25.4411 18.9271 24.7535 19.0533 24.1732 19.3056C23.5929 19.5516 23.1419 19.8922 22.8202 20.3274C22.5049 20.7564 22.3471 21.2452 22.3471 21.794C22.3471 22.2544 22.4544 22.6518 22.6688 22.9861C22.8896 23.3205 23.1766 23.6012 23.5299 23.8282C23.8894 24.049 24.2742 24.2351 24.6842 24.3865C25.0942 24.5315 25.4884 24.6514 25.8669 24.746L27.7592 25.238C28.3773 25.3894 29.0113 25.5944 29.661 25.853C30.3106 26.1116 30.913 26.4522 31.4681 26.8748C32.0232 27.2975 32.471 27.821 32.8117 28.4455C33.1585 29.0699 33.332 29.8174 33.332 30.6879C33.332 31.7854 33.0482 32.7599 32.4805 33.6115C31.9191 34.463 31.1023 35.1348 30.0299 35.6268C28.9639 36.1188 27.674 36.3648 26.1602 36.3648C24.7094 36.3648 23.4542 36.1345 22.3945 35.6741C21.3348 35.2137 20.5053 34.5608 19.906 33.7155C19.3068 32.864 18.9757 31.8548 18.9126 30.6879H21.8457C21.9024 31.388 22.1295 31.9715 22.5269 32.4383C22.9306 32.8987 23.4447 33.2425 24.0692 33.4695C24.6999 33.6903 25.3906 33.8007 26.1413 33.8007C26.9675 33.8007 27.7024 33.6714 28.3458 33.4128C28.9955 33.1479 29.5064 32.782 29.8785 32.3152C30.2507 31.8422 30.4368 31.2902 30.4368 30.6594C30.4368 30.0855 30.2728 29.6155 29.9448 29.2497C29.6231 28.8838 29.1847 28.5811 28.6296 28.3414C28.0809 28.1017 27.4595 27.8904 26.7657 27.7075L24.476 27.083C22.9243 26.6604 21.6943 26.0391 20.786 25.2191C19.884 24.3991 19.433 23.3141 19.433 21.9643C19.433 20.8478 19.7358 19.8733 20.3413 19.0407C20.9468 18.208 21.7668 17.5615 22.8013 17.1011C23.8358 16.6343 25.0027 16.4009 26.3021 16.4009C27.6141 16.4009 28.7716 16.6311 29.7745 17.0916C30.7837 17.552 31.5785 18.186 32.1588 18.9933C32.7391 19.7944 33.0419 20.7154 33.0671 21.7562H30.2475Z" fill="#29293E"/>
</g>
<defs>
<linearGradient id="paint0_linear_1_22462" x1="43.0757" y1="4.50112" x2="13.6622" y2="53.1144" gradientUnits="userSpaceOnUse">
<stop stop-color="#E495FF"/>
<stop offset="0.510417" stop-color="#EBABFF"/>
<stop offset="1" stop-color="#BFA1FF"/>
</linearGradient>
<linearGradient id="paint1_linear_1_22462" x1="5.40759" y1="47.8377" x2="23.3535" y2="30.78" gradientUnits="userSpaceOnUse">
<stop stop-color="#8C9BFF"/>
<stop offset="0.963542" stop-color="#8C9BFF" stop-opacity="0"/>
</linearGradient>
<linearGradient id="paint2_linear_1_22462" x1="54.465" y1="38.1464" x2="42.2399" y2="23.4136" gradientUnits="userSpaceOnUse">
<stop stop-color="#DFFEFE" stop-opacity="0.9"/>
<stop offset="1" stop-color="#DFFEFE" stop-opacity="0"/>
</linearGradient>
<linearGradient id="paint3_linear_1_22462" x1="45.5051" y1="7.13946" x2="30.0669" y2="22.7866" gradientUnits="userSpaceOnUse">
<stop stop-color="#E167FF"/>
<stop offset="1" stop-color="#E167FF" stop-opacity="0"/>
</linearGradient>
<linearGradient id="paint4_linear_1_22462" x1="6.73982" y1="3.09053" x2="26.1747" y2="18.7899" gradientUnits="userSpaceOnUse">
<stop stop-color="#F08DFF"/>
<stop offset="1" stop-color="#F08DFF" stop-opacity="0"/>
</linearGradient>
<clipPath id="clip0_1_22462">
<rect y="0.881256" width="52.2443" height="52.2443" rx="26.1221" fill="white"/>
</clipPath>
<clipPath id="clip1_1_22462">
<rect width="52.2443" height="52.2443" fill="white" transform="translate(0 0.882416)"/>
</clipPath>
</defs>
</svg>
