<svg width="32" height="24" viewBox="0 0 32 24" fill="none" xmlns="http://www.w3.org/2000/svg">
<path d="M0 8C0 3.58172 3.58172 0 8 0H24C28.4183 0 32 3.58172 32 8V16C32 20.4183 28.4183 24 24 24H8C3.58172 24 0 20.4183 0 16V8Z" fill="#181818"/>
<path d="M12.4375 12.75H11.5V11.25H12.4375C12.7713 11.25 13.0975 11.151 13.375 10.9656C13.6525 10.7802 13.8688 10.5166 13.9965 10.2083C14.1243 9.89993 14.1577 9.56063 14.0926 9.23329C14.0275 8.90594 13.8667 8.60526 13.6307 8.36926C13.3947 8.13326 13.0941 7.97254 12.7667 7.90743C12.4394 7.84231 12.1001 7.87573 11.7917 8.00345C11.4834 8.13118 11.2198 8.34747 11.0344 8.62498C10.849 8.90248 10.75 9.22874 10.75 9.5625V10.5H9.25V9.5625C9.25 9.22874 9.15103 8.90248 8.96561 8.62498C8.78018 8.34747 8.51663 8.13118 8.20828 8.00345C7.89993 7.87573 7.56063 7.84231 7.23329 7.90743C6.90594 7.97254 6.60526 8.13326 6.36926 8.36926C6.13326 8.60526 5.97254 8.90594 5.90743 9.23329C5.84231 9.56063 5.87573 9.89993 6.00345 10.2083C6.13118 10.5166 6.34747 10.7802 6.62498 10.9656C6.90248 11.151 7.22874 11.25 7.5625 11.25H8.5V12.75H7.5625C7.22874 12.75 6.90248 12.849 6.62498 13.0344C6.34747 13.2198 6.13118 13.4834 6.00345 13.7917C5.87573 14.1001 5.84231 14.4394 5.90743 14.7667C5.97254 15.0941 6.13326 15.3947 6.36926 15.6307C6.60526 15.8667 6.90594 16.0275 7.23329 16.0926C7.56063 16.1577 7.89993 16.1243 8.20828 15.9965C8.51663 15.8688 8.78018 15.6525 8.96561 15.375C9.15103 15.0975 9.25 14.7713 9.25 14.4375V13.5H10.75V14.4375C10.75 14.7713 10.849 15.0975 11.0344 15.375C11.2198 15.6525 11.4834 15.8688 11.7917 15.9965C12.1001 16.1243 12.4394 16.1577 12.7667 16.0926C13.0941 16.0275 13.3947 15.8667 13.6307 15.6307C13.8667 15.3947 14.0275 15.0941 14.0926 14.7667C14.1577 14.4394 14.1243 14.1001 13.9965 13.7917C13.8688 13.4834 13.6525 13.2198 13.375 13.0344C13.0975 12.849 12.7713 12.75 12.4375 12.75ZM11.5 9.5625C11.5 9.37708 11.555 9.19582 11.658 9.04165C11.761 8.88748 11.9074 8.76732 12.0787 8.69636C12.25 8.62541 12.4385 8.60684 12.6204 8.64301C12.8023 8.67919 12.9693 8.76848 13.1004 8.89959C13.2315 9.0307 13.3208 9.19775 13.357 9.3796C13.3932 9.56146 13.3746 9.74996 13.3036 9.92127C13.2327 10.0926 13.1125 10.239 12.9583 10.342C12.8042 10.445 12.6229 10.5 12.4375 10.5H11.5V9.5625ZM6.625 9.5625C6.625 9.31386 6.72377 9.0754 6.89959 8.89959C7.0754 8.72377 7.31386 8.625 7.5625 8.625C7.81114 8.625 8.0496 8.72377 8.22541 8.89959C8.40123 9.0754 8.5 9.31386 8.5 9.5625V10.5H7.5625C7.31386 10.5 7.0754 10.4012 6.89959 10.2254C6.72377 10.0496 6.625 9.81114 6.625 9.5625ZM8.5 14.4375C8.5 14.6229 8.44502 14.8042 8.342 14.9583C8.23899 15.1125 8.09257 15.2327 7.92127 15.3036C7.74996 15.3746 7.56146 15.3932 7.3796 15.357C7.19775 15.3208 7.0307 15.2315 6.89959 15.1004C6.76848 14.9693 6.67919 14.8023 6.64301 14.6204C6.60684 14.4385 6.62541 14.25 6.69636 14.0787C6.76732 13.9074 6.88748 13.761 7.04165 13.658C7.19582 13.555 7.37708 13.5 7.5625 13.5H8.5V14.4375ZM9.25 11.25H10.75V12.75H9.25V11.25ZM12.4375 15.375C12.1889 15.375 11.9504 15.2762 11.7746 15.1004C11.5988 14.9246 11.5 14.6861 11.5 14.4375V13.5H12.4375C12.6861 13.5 12.9246 13.5988 13.1004 13.7746C13.2762 13.9504 13.375 14.1889 13.375 14.4375C13.375 14.6861 13.2762 14.9246 13.1004 15.1004C12.9246 15.2762 12.6861 15.375 12.4375 15.375Z" fill="#808080"/>
<path d="M19.0945 16V7.48H20.3905V11.548L23.9785 7.48H25.5505L22.2865 11.2L25.7665 16H24.2425L21.4225 12.112L20.3905 13.264V16H19.0945Z" fill="#808080"/>
</svg>
