<svg width="36" height="36" viewBox="0 0 36 36" fill="none" xmlns="http://www.w3.org/2000/svg">
<path d="M17.8923 35.9939C27.774 35.9939 35.7846 27.9364 35.7846 17.997C35.7846 8.05752 27.774 0 17.8923 0C8.01066 0 0 8.05752 0 17.997C0 27.9364 8.01066 35.9939 17.8923 35.9939Z" fill="#006EFF"/>
<path d="M17.8923 9.94793C13.4733 9.94793 9.89007 13.5522 9.89007 17.997C9.89007 18.0998 9.9021 18.2026 9.90811 18.3054C9.90811 18.3296 9.89007 18.3538 9.89007 18.378V34.0951C14.309 34.0951 17.8923 30.4908 17.8923 26.046C22.3113 26.046 25.8946 22.4418 25.8946 17.997C25.8946 13.5522 22.3113 9.94793 17.8923 9.94793Z" fill="white"/>
<path d="M20.3573 16.1404C21.3767 16.1404 22.2031 15.3092 22.2031 14.2839C22.2031 13.2585 21.3767 12.4273 20.3573 12.4273C19.3379 12.4273 18.5116 13.2585 18.5116 14.2839C18.5116 15.3092 19.3379 16.1404 20.3573 16.1404Z" fill="#006EFF"/>
</svg>
