<svg width="91" height="23" viewBox="0 0 91 23" fill="none" xmlns="http://www.w3.org/2000/svg">
<path d="M32.1053 18.4072H28.6964C28.6002 18.4072 28.516 18.3286 28.516 18.2258V13.914H28.4559C28.4559 16.3632 26.5139 18.8426 23.4958 18.8426C19.4977 18.8426 17.0327 15.196 17.0327 11.4043C17.0327 7.61264 19.4977 3.96607 23.4958 3.96607C26.5079 3.96607 28.4559 6.44549 28.4559 8.89468H28.516L29.3577 4.54662C29.3757 4.46196 29.4479 4.40148 29.5321 4.40148H32.1053C32.2015 4.40148 32.2857 4.4801 32.2857 4.5829V18.2197C32.2857 18.3165 32.2075 18.4011 32.1053 18.4011V18.4072ZM24.6021 15.6375C27.1512 15.6375 28.516 13.6237 28.516 11.4104C28.516 9.19705 27.0971 7.18327 24.6021 7.18327C22.107 7.18327 20.8023 9.0761 20.8023 11.4104C20.8023 13.7447 21.9928 15.6375 24.6021 15.6375Z" fill="white"/>
<path d="M0.451032 22.9004H3.85995C3.95615 22.9004 4.04032 22.8218 4.04032 22.719V13.908H4.10044C4.10044 16.3571 6.04238 18.8366 9.06051 18.8366C13.0586 18.8366 15.5236 15.19 15.5236 11.3983C15.5236 7.60659 13.0586 3.96003 9.06051 3.96003C6.04839 3.96003 4.10044 6.43945 4.10044 8.88863H4.04032L3.19861 4.54057C3.18057 4.45591 3.10843 4.39544 3.02425 4.39544H0.451032C0.354837 4.39544 0.270664 4.47405 0.270664 4.57686L0.270664 22.7129C0.270664 22.8097 0.348825 22.8943 0.451032 22.8943V22.9004ZM7.95426 15.6375C5.40509 15.6375 4.04032 13.6237 4.04032 11.4104C4.04032 9.19705 5.45919 7.18327 7.95426 7.18327C10.4493 7.18327 11.754 9.0761 11.754 11.4104C11.754 13.7447 10.5636 15.6375 7.95426 15.6375Z" fill="white"/>
<path d="M33.8067 7.5824V4.58895C33.8067 4.49219 33.8849 4.40753 33.9871 4.40753H36.416V4.37729L37.2517 0.754919C37.2698 0.676303 37.3419 0.615829 37.4261 0.615829L40.0053 0.615829C40.1015 0.615829 40.1857 0.694445 40.1857 0.797251V4.40753H44.6467C44.7429 4.40753 44.8271 4.48615 44.8271 4.58895V7.5824C44.8271 7.67916 44.7489 7.76382 44.6467 7.76382H40.1857V13.7144C40.1857 14.9662 40.7929 15.4924 41.6346 15.4924C42.795 15.4924 43.2098 14.4885 43.2279 11.8821C43.2279 11.7853 43.306 11.7007 43.4082 11.7007H46.0897C46.1919 11.7007 46.27 11.7853 46.27 11.8881C46.2039 16.4902 43.769 18.8487 40.8771 18.8487C37.9852 18.8487 36.41 16.3692 36.41 13.92V7.76987H33.9811C33.8849 7.76987 33.8007 7.69125 33.8007 7.58845L33.8067 7.5824Z" fill="white"/>
<path d="M62.503 18.4072H59.0941C58.9979 18.4072 58.9137 18.3286 58.9137 18.2258V13.914H58.8536C58.8536 16.3632 56.9116 18.8426 53.8935 18.8426C49.8954 18.8426 47.4304 15.196 47.4304 11.4043C47.4304 7.61264 49.8954 3.96607 53.8935 3.96607C56.9056 3.96607 58.8536 6.44549 58.8536 8.89468H58.9137L59.7554 4.54662C59.7735 4.46196 59.8456 4.40148 59.9298 4.40148H62.503C62.5992 4.40148 62.6834 4.4801 62.6834 4.5829V18.2197C62.6834 18.3165 62.6052 18.4011 62.503 18.4011V18.4072ZM54.9938 15.6375C57.5429 15.6375 58.9077 13.6237 58.9077 11.4104C58.9077 9.19705 57.4888 7.18327 54.9938 7.18327C52.4987 7.18327 51.194 9.0761 51.194 11.4104C51.194 13.7447 52.3845 15.6375 54.9938 15.6375Z" fill="white"/>
<path d="M64.4209 18.2258V4.58895C64.4209 4.49219 64.499 4.40753 64.6012 4.40753H67.1745C67.2586 4.40753 67.3308 4.468 67.3488 4.55267L68.1905 8.90072H68.2507C68.2507 6.45154 70.1926 3.97212 73.2107 3.97212C74.4372 3.97212 75.5134 4.25635 76.4092 4.75223C76.4994 4.80061 76.5295 4.92156 76.4693 5.01227L74.6236 7.915C74.5695 8.00571 74.4432 8.0299 74.3651 7.96338C73.8901 7.58845 73.2588 7.18327 72.1105 7.18327C69.6154 7.18327 68.1965 9.19705 68.1965 11.4104V18.2318C68.1965 18.3286 68.1184 18.4132 68.0162 18.4132H64.6073C64.5111 18.4132 64.4269 18.3346 64.4269 18.2318L64.4209 18.2258Z" fill="white"/>
<path d="M90.7664 18.4072H87.3574C87.2613 18.4072 87.1771 18.3286 87.1771 18.2258V13.914H87.117C87.117 16.3632 85.175 18.8426 82.1569 18.8426C78.1588 18.8426 75.6938 15.196 75.6938 11.4043C75.6938 7.61264 78.1588 3.96607 82.1569 3.96607C85.169 3.96607 87.117 6.44549 87.117 8.89468H87.1771L88.0188 4.54662C88.0368 4.46196 88.109 4.40148 88.1931 4.40148H90.7664C90.8626 4.40148 90.9467 4.4801 90.9467 4.5829V18.2197C90.9467 18.3165 90.8686 18.4011 90.7664 18.4011V18.4072ZM83.2631 15.6375C85.8123 15.6375 87.1771 13.6237 87.1771 11.4104C87.1771 9.19705 85.7582 7.18327 83.2631 7.18327C80.7681 7.18327 79.4634 9.0761 79.4634 11.4104C79.4634 13.7447 80.6538 15.6375 83.2631 15.6375Z" fill="white"/>
</svg>
