<svg width="60" height="60" viewBox="0 0 60 60" fill="none" xmlns="http://www.w3.org/2000/svg">
<g clip-path="url(#clip0_1_22324)">
<rect width="60" height="60" rx="30" fill="url(#paint0_linear_1_22324)"/>
<g clip-path="url(#clip1_1_22324)">
<mask id="mask0_1_22324" style="mask-type:luminance" maskUnits="userSpaceOnUse" x="0" y="0" width="60" height="60">
<path d="M60 0H0V60H60V0Z" fill="white"/>
</mask>
<g mask="url(#mask0_1_22324)">
<path d="M60 0H0V60H60V0Z" fill="url(#paint1_linear_1_22324)"/>
<path d="M60.03 0H0.0299988V60H60.03V0Z" fill="url(#paint2_linear_1_22324)"/>
<path d="M60.03 0H0.0299988V60H60.03V0Z" fill="#303034"/>
<path d="M60.03 0H0.0299988V60H60.03V0Z" fill="url(#paint3_linear_1_22324)"/>
<path d="M60.03 0H0.0299988V60H60.03V0Z" fill="url(#paint4_linear_1_22324)"/>
</g>
</g>
<path d="M23.0998 40.38V18.1255H36.9002V21.016H26.4575V27.7966H35.9114V30.6763H26.4575V40.38H23.0998Z" fill="#C4C4C8"/>
</g>
<defs>
<linearGradient id="paint0_linear_1_22324" x1="30" y1="0" x2="30" y2="60" gradientUnits="userSpaceOnUse">
<stop stop-color="#282832"/>
<stop offset="0.365177" stop-color="#212121"/>
<stop offset="1" stop-color="#121212"/>
</linearGradient>
<linearGradient id="paint1_linear_1_22324" x1="30" y1="0" x2="30" y2="60" gradientUnits="userSpaceOnUse">
<stop stop-color="#282832"/>
<stop offset="0.365177" stop-color="#212121"/>
<stop offset="1" stop-color="#121212"/>
</linearGradient>
<linearGradient id="paint2_linear_1_22324" x1="30.03" y1="0" x2="30.03" y2="60" gradientUnits="userSpaceOnUse">
<stop stop-color="#282832"/>
<stop offset="0.365177" stop-color="#212121"/>
<stop offset="1" stop-color="#121212"/>
</linearGradient>
<linearGradient id="paint3_linear_1_22324" x1="30.03" y1="0" x2="30.03" y2="60" gradientUnits="userSpaceOnUse">
<stop stop-color="#282832"/>
<stop offset="0.365177" stop-color="#212121"/>
<stop offset="1" stop-color="#121212"/>
</linearGradient>
<linearGradient id="paint4_linear_1_22324" x1="30.03" y1="0" x2="30.03" y2="60" gradientUnits="userSpaceOnUse">
<stop stop-color="#282832"/>
<stop offset="0.365177" stop-color="#212121"/>
<stop offset="1" stop-color="#121212"/>
</linearGradient>
<clipPath id="clip0_1_22324">
<rect width="60" height="60" rx="30" fill="white"/>
</clipPath>
<clipPath id="clip1_1_22324">
<rect width="60" height="60" fill="white"/>
</clipPath>
</defs>
</svg>
