<svg width="28" height="28" viewBox="0 0 28 28" fill="none" xmlns="http://www.w3.org/2000/svg">
<path d="M6.68281 14.4422L12.3078 20.0672C12.4251 20.1844 12.5841 20.2503 12.75 20.2503C12.9159 20.2503 13.0749 20.1844 13.1922 20.0672C13.3095 19.9499 13.3753 19.7908 13.3753 19.625C13.3753 19.4591 13.3095 19.3001 13.1922 19.1828L8.63359 14.625H20.875C21.0408 14.625 21.1997 14.5591 21.3169 14.4419C21.4342 14.3247 21.5 14.1657 21.5 14C21.5 13.8342 21.4342 13.6753 21.3169 13.558C21.1997 13.4408 21.0408 13.375 20.875 13.375H8.63359L13.1922 8.81717C13.3095 8.69989 13.3753 8.54083 13.3753 8.37498C13.3753 8.20913 13.3095 8.05007 13.1922 7.93279C13.0749 7.81552 12.9159 7.74963 12.75 7.74963C12.5841 7.74963 12.4251 7.81552 12.3078 7.93279L6.68281 13.5578C6.6247 13.6158 6.5786 13.6848 6.54715 13.7606C6.5157 13.8365 6.49951 13.9178 6.49951 14C6.49951 14.0821 6.5157 14.1634 6.54715 14.2393C6.5786 14.3152 6.6247 14.3841 6.68281 14.4422Z" fill="#808080"/>
</svg>
